<?xml version="1.0" encoding="iso-8859-1"?>
<svg version="1.1" id="Layer_1" xmlns="http://www.w3.org/2000/svg" x="0px" y="0px"
    viewBox="0 0 512 512" style="enable-background:new 0 0 512 512;" xml:space="preserve">
<path style="fill:#999999;" d="M322.783,378.435h89.043v111.304H100.174V378.435h89.043l11.13-33.391h111.304L322.783,378.435z
	 M100.174,200.348v122.435h66.783l11.13-33.391h155.826l11.13,33.391h66.783V200.348H100.174z" />
    <path style="fill:#6D6D6D;" d="M322.783,189.217H189.217V22.261h133.565V189.217z" />
    <path style="fill:#999999;" d="M289.391,189.217H189.217V22.261h100.174V189.217z" />
    <path style="fill:#444444;"
        d="M322.783,77.913v33.391H189.217V77.913H322.783z M189.217,189.217h133.565v-44.522H189.217V189.217z" />
    <path style="fill:#6D6D6D;" d="M456.348,189.217v22.261c0,6.147-4.983,11.13-11.13,11.13h-33.391v100.174H369.53V222.609H66.783
	c-6.147,0-11.13-4.983-11.13-11.13v-22.261c0-6.147,4.983-11.13,11.13-11.13h378.435
	C451.365,178.087,456.348,183.07,456.348,189.217z M445.217,467.478h-33.391v-89.043H369.53v89.043H66.783
	c-6.147,0-11.13,4.983-11.13,11.13v22.261c0,6.147,4.983,11.13,11.13,11.13h378.435c6.147,0,11.13-4.983,11.13-11.13v-22.261
	C456.348,472.461,451.365,467.478,445.217,467.478z" />
    <g>
	<path style="fill:#FFD34E;" d="M142.024,178.087h90.824l-44.522,44.522h-32.501h-55.652h-2.671L142.024,178.087z M337.03,222.609
		h32.501l44.522-44.522h-90.824l-44.522,44.522h2.671H337.03z M97.503,512h2.671h55.652h32.501l44.522-44.522h-90.824L97.503,512z
		 M278.706,512h2.671h55.652h32.501l44.522-44.522h-90.824L278.706,512z" />
        <path style="fill:#FFD34E;" d="M367.304,11.13v22.261c0,6.147-4.983,11.13-11.13,11.13h-11.13v22.261
		c0,6.147-4.983,11.13-11.13,11.13h-22.261c-6.147,0-11.13-4.983-11.13-11.13V44.522h-89.043v22.261
		c0,6.147-4.983,11.13-11.13,11.13h-22.261c-6.147,0-11.13-4.983-11.13-11.13V44.522h-11.13c-6.147,0-11.13-4.983-11.13-11.13V11.13
		c0-6.147,4.983-11.13,11.13-11.13h200.348C362.321,0,367.304,4.983,367.304,11.13z" />
</g>
    <path style="fill:#FFB933;" d="M367.304,22.261v11.13c0,6.147-4.983,11.13-11.13,11.13h-11.13v22.261
	c0,6.147-4.983,11.13-11.13,11.13h-11.13V44.522H211.478v22.261c0,6.147-4.983,11.13-11.13,11.13h-11.13V44.522h-33.391
	c-6.147,0-11.13-4.983-11.13-11.13v-11.13H367.304z" />
</svg>
